<?xml version="1.0" encoding="UTF-8"?>
<svg version="1.1" xmlns="http://www.w3.org/2000/svg" width="121" height="65">
<path d="M0 0 C6.27 0 12.54 0 19 0 C23.06994527 7.72246025 26.56504448 15.55145863 29.875 23.625 C30.28032959 24.60936035 30.68565918 25.5937207 31.10327148 26.60791016 C31.47911377 27.53394043 31.85495605 28.4599707 32.2421875 29.4140625 C32.5810498 30.2488916 32.91991211 31.0837207 33.26904297 31.94384766 C34 34 34 34 34 36 C34.66 36 35.32 36 36 36 C36.15650024 34.98740112 36.15650024 34.98740112 36.31616211 33.9543457 C37.14596704 30.36938695 38.49884275 27.10068235 39.94140625 23.73046875 C40.22853989 23.04946609 40.51567352 22.36846344 40.81150818 21.66682434 C41.72412034 19.5051638 42.6432013 17.34632419 43.5625 15.1875 C44.18467475 13.71697872 44.8064242 12.24627741 45.42773438 10.77539062 C46.94612254 7.18112865 48.47323751 3.59075851 50 0 C56.27 0 62.54 0 69 0 C69 21.45 69 42.9 69 65 C64.38 65 59.76 65 55 65 C54.505 47.675 54.505 47.675 54 30 C50.37 38.25 46.74 46.5 43 55 C37.72 55 32.44 55 27 55 C23.37 46.75 19.74 38.5 16 30 C15.67 41.55 15.34 53.1 15 65 C10.05 65 5.1 65 0 65 C0 43.55 0 22.1 0 0 Z " fill="#FFFFFF" transform="translate(52,0)"/>
<path d="M0 0 C16.17 0 32.34 0 49 0 C49 4.29 49 8.58 49 13 C43.39 13 37.78 13 32 13 C32 30.16 32 47.32 32 65 C27.05 65 22.1 65 17 65 C17 47.84 17 30.68 17 13 C11.39 13 5.78 13 0 13 C0 8.71 0 4.42 0 0 Z " fill="#FFFFFF" transform="translate(0,0)"/>
</svg>
