<?xml version="1.0" encoding="UTF-8"?>
<svg version="1.1" xmlns="http://www.w3.org/2000/svg" width="612" height="408">
<path d="M0 0 C55.11 0 110.22 0 167 0 C172.6201873 11.24037461 172.6201873 11.24037461 174.4296875 15.26171875 C175.02898071 16.58804321 175.02898071 16.58804321 175.64038086 17.94116211 C176.04780518 18.84745361 176.45522949 19.75374512 176.875 20.6875 C180.36925659 28.42212476 183.9070672 36.13218425 187.52734375 43.80859375 C189.0830898 47.18006463 190.54745406 50.5829452 192 54 C192.64209887 55.45998146 193.28740405 56.91856186 193.9375 58.375 C194.27136719 59.12394531 194.60523438 59.87289062 194.94921875 60.64453125 C195.29597656 61.42183594 195.64273438 62.19914062 196 63 C196.75023757 64.68739439 197.50024582 66.37489077 198.25 68.0625 C198.58515625 68.81660156 198.9203125 69.57070312 199.265625 70.34765625 C199.50796875 70.89292969 199.7503125 71.43820313 200 72 C201.64142474 69.53786289 202.73579861 67.44265783 203.875 64.75 C205.10114835 61.92669163 206.3542375 59.40579517 207.9375 56.75 C209.76326415 53.66542184 210.98482476 50.50667502 212.22265625 47.14453125 C214.97266825 39.90436385 218.18480326 32.93325738 221.5 25.9375 C222.61694872 23.57273038 223.73155637 21.2068535 224.84375 18.83984375 C225.33037109 17.81238037 225.81699219 16.78491699 226.31835938 15.72631836 C228.66119991 10.53485855 230.80937457 5.25750102 233 0 C249.17 0 265.34 0 282 0 C282 52.14 282 104.28 282 158 C277.13187934 158.81135344 272.68233598 159.14634293 267.79296875 159.1328125 C266.64396843 159.13424759 266.64396843 159.13424759 265.47175598 159.13571167 C263.86406369 159.13638863 262.25636859 159.13456829 260.64868164 159.13037109 C258.17783578 159.12497891 255.70716866 159.13035124 253.23632812 159.13671875 C251.6718746 159.13605861 250.10742118 159.13477876 248.54296875 159.1328125 C247.43057076 159.13584885 247.43057076 159.13584885 246.29570007 159.13894653 C241.11497642 159.11497642 241.11497642 159.11497642 240 158 C239.87468846 155.0482962 239.8138887 152.11886478 239.79467773 149.16577148 C239.78477814 148.23903625 239.77487854 147.31230103 239.76467896 146.35748291 C239.73296299 143.27871296 239.7082668 140.19992755 239.68359375 137.12109375 C239.66303293 134.99259529 239.6420367 132.86410099 239.62062073 130.73561096 C239.56530996 125.12142296 239.51594053 119.50719757 239.46777344 113.89294434 C239.41762399 108.1688299 239.36190378 102.44477007 239.30664062 96.72070312 C239.19894898 85.48051534 239.09752862 74.24028024 239 63 C238.60820557 64.06508789 238.21641113 65.13017578 237.81274414 66.22753906 C237.28287274 67.65695958 236.75283448 69.08631826 236.22265625 70.515625 C235.83817322 71.56290771 235.83817322 71.56290771 235.44592285 72.63134766 C233.41103537 78.10198534 231.06107808 83.35142161 228.54469299 88.61888123 C225.81828224 94.3316307 223.40147242 100.14547873 221 106 C219.94716769 108.54580515 218.88277101 111.08648247 217.8125 113.625 C217.32394531 114.79289062 216.83539063 115.96078125 216.33203125 117.1640625 C215 120 215 120 213 122 C210.20263672 122.22705078 210.20263672 122.22705078 206.6796875 122.1953125 C204.79443359 122.18564453 204.79443359 122.18564453 202.87109375 122.17578125 C201.55238281 122.15902344 200.23367188 122.14226562 198.875 122.125 C197.53516279 122.11496983 196.19531848 122.10584404 194.85546875 122.09765625 C191.57013427 122.07402075 188.28515535 122.04107234 185 122 C181.51124372 115.21183525 178.34085406 108.34361953 175.375 101.3125 C174.9934375 100.41466797 174.611875 99.51683594 174.21875 98.59179688 C173.50685365 96.91638564 172.7962163 95.24043832 172.08740234 93.5637207 C171.2863319 91.67507213 170.47680529 89.79000479 169.66259766 87.90698242 C167.48025743 82.8193754 165.40344671 77.68815407 163.3125 72.5625 C162.89677734 71.54478516 162.48105469 70.52707031 162.05273438 69.47851562 C161.03462164 66.9858948 160.01705781 64.49305141 159 62 C159.00222061 63.14370056 159.00444122 64.28740112 159.00672913 65.46575928 C159.02698858 76.23673013 159.0419857 87.00769713 159.05181217 97.77868271 C159.05703385 103.3163304 159.06411858 108.85396272 159.07543945 114.39160156 C159.08629365 119.73431805 159.09228223 125.07701974 159.09487724 130.4197464 C159.09672691 132.45951826 159.10033876 134.4992893 159.10573006 136.53905487 C159.11297404 139.39291645 159.11398951 142.24671666 159.11352539 145.10058594 C159.11712067 145.94647278 159.12071594 146.79235962 159.12442017 147.66387939 C159.11804391 151.27998759 158.97827305 154.52052469 158 158 C153.8961782 158.98323782 150.05005766 159.12902039 145.8359375 159.1328125 C145.16204987 159.13376923 144.48816223 159.13472595 143.79385376 159.13571167 C142.37689113 159.13638914 140.95992533 159.13456518 139.54296875 159.13037109 C137.3749294 159.12499983 135.20709561 159.1303393 133.0390625 159.13671875 C131.65885371 159.13605822 130.27864505 159.13477758 128.8984375 159.1328125 C127.64724121 159.13168457 126.39604492 159.13055664 125.10693359 159.12939453 C122 159 122 159 119 158 C119 116.42 119 74.84 119 32 C109.1 32.33 99.2 32.66 89 33 C88.96241577 38.67207642 88.96241577 38.67207642 88.92407227 44.45874023 C88.8407833 56.91989916 88.75212443 69.38101496 88.66066074 81.84211636 C88.60531135 89.40099457 88.5518266 96.9598775 88.50268555 104.51879883 C88.45986466 111.10482626 88.41359207 117.69081869 88.36312145 124.27679211 C88.33650354 127.76611014 88.31165014 131.25542116 88.29092598 134.74477959 C88.26776327 138.63385523 88.23689642 142.5228483 88.20532227 146.41186523 C88.1995668 147.57711227 88.19381134 148.74235931 88.18788147 149.94291687 C88.17809265 150.99606079 88.16830383 152.04920471 88.15821838 153.13426208 C88.15176583 154.05513328 88.14531328 154.97600447 88.1386652 155.92478085 C88 158 88 158 87 159 C84.21174652 159.10105822 81.44879127 159.1396984 78.66015625 159.1328125 C77.82286484 159.13376923 76.98557343 159.13472595 76.12290955 159.13571167 C74.34829636 159.13639355 72.57368069 159.13453872 70.79907227 159.13037109 C68.0775798 159.1250296 65.35625288 159.13031235 62.63476562 159.13671875 C60.91406213 159.13605784 59.19335875 159.13477641 57.47265625 159.1328125 C56.65491226 159.13483673 55.83716827 159.13686096 54.99464417 159.13894653 C49.22991015 159.11495507 49.22991015 159.11495507 47 158 C47 116.42 47 74.84 47 32 C31.82 32 16.64 32 1 32 C0.67 31.67 0.34 31.34 0 31 C0 20.77 0 10.54 0 0 Z " fill="#030303" transform="translate(157,124)"/>
<path d="M0 0 C11.22 0 22.44 0 34 0 C34 41.91 34 83.82 34 127 C45.88 127 57.76 127 70 127 C69.67 125.68 69.34 124.36 69 123 C68.90514948 120.12877151 68.8634712 117.28219697 68.87060547 114.41113281 C68.86797699 113.11280014 68.86797699 113.11280014 68.86529541 111.78823853 C68.86089417 108.92651362 68.86380987 106.06485054 68.8671875 103.203125 C68.86651372 101.21018461 68.86554307 99.21724431 68.86428833 97.2243042 C68.86281349 93.04471048 68.86495816 88.86513812 68.86962891 84.68554688 C68.87531127 79.34149081 68.87205531 73.99748513 68.86605644 68.65343094 C68.86243244 64.5354983 68.86359812 60.41757748 68.86618423 56.29964447 C68.86684918 54.33016707 68.86604024 52.36068859 68.86370468 50.39121246 C68.8611496 47.62959479 68.86505949 44.86805707 68.87060547 42.10644531 C68.86858124 41.29992523 68.86655701 40.49340515 68.86447144 39.66244507 C68.88285471 34.69154084 69.29430158 29.92189514 70 25 C71.65 26.65 73.3 28.3 75 30 C74.34 31.32 73.68 32.64 73 34 C72.67 33.34 72.34 32.68 72 32 C72.00222061 33.14370056 72.00444122 34.28740112 72.00672913 35.46575928 C72.02698858 46.23673013 72.0419857 57.00769713 72.05181217 67.77868271 C72.05703385 73.3163304 72.06411858 78.85396272 72.07543945 84.39160156 C72.08629365 89.73431805 72.09228223 95.07701974 72.09487724 100.4197464 C72.09672691 102.45951826 72.10033876 104.4992893 72.10573006 106.53905487 C72.11297404 109.39291645 72.11398951 112.24671666 72.11352539 115.10058594 C72.11712067 115.94647278 72.12071594 116.79235962 72.12442017 117.66387939 C72.11804391 121.27998759 71.97827305 124.52052469 71 128 C66.8961782 128.98323782 63.05005766 129.12902039 58.8359375 129.1328125 C58.16204987 129.13376923 57.48816223 129.13472595 56.79385376 129.13571167 C55.37689113 129.13638914 53.95992533 129.13456518 52.54296875 129.13037109 C50.3749294 129.12499983 48.20709561 129.1303393 46.0390625 129.13671875 C44.65885371 129.13605822 43.27864505 129.13477758 41.8984375 129.1328125 C40.64724121 129.13168457 39.39604492 129.13055664 38.10693359 129.12939453 C35 129 35 129 32 128 C32 86.42 32 44.84 32 2 C22.1 2.33 12.2 2.66 2 3 C1.96241577 8.67207642 1.96241577 8.67207642 1.92407227 14.45874023 C1.8407833 26.91989916 1.75212443 39.38101496 1.66066074 51.84211636 C1.60531135 59.40099457 1.5518266 66.9598775 1.50268555 74.51879883 C1.45986466 81.10482626 1.41359207 87.69081869 1.36312145 94.27679211 C1.33650354 97.76611014 1.31165014 101.25542116 1.29092598 104.74477959 C1.26776327 108.63385523 1.23689642 112.5228483 1.20532227 116.41186523 C1.1995668 117.57711227 1.19381134 118.74235931 1.18788147 119.94291687 C1.17809265 120.99606079 1.16830383 122.04920471 1.15821838 123.13426208 C1.15176583 124.05513328 1.14531328 124.97600447 1.1386652 125.92478085 C1 128 1 128 0 129 C-2.8116338 129.08861992 -5.59858255 129.11522355 -8.41015625 129.09765625 C-9.25219101 129.0962413 -10.09422577 129.09482635 -10.96177673 129.09336853 C-13.66205335 129.08775263 -16.36224828 129.07519748 -19.0625 129.0625 C-20.88867068 129.05748705 -22.71484266 129.05292379 -24.54101562 129.04882812 C-29.02737542 129.03777804 -33.51367384 129.02050279 -38 129 C-38 128.34 -38 127.68 -38 127 C-25.46 127 -12.92 127 0 127 C0 85.09 0 43.18 0 0 Z " fill="#6A696A" transform="translate(244,154)"/>
<path d="M0 0 C11.22 0 22.44 0 34 0 C34 41.91 34 83.82 34 127 C33.67 127 33.34 127 33 127 C32.67 85.75 32.34 44.5 32 2 C22.1 2.33 12.2 2.66 2 3 C1.96241577 8.67207642 1.96241577 8.67207642 1.92407227 14.45874023 C1.8407833 26.91989916 1.75212443 39.38101496 1.66066074 51.84211636 C1.60531135 59.40099457 1.5518266 66.9598775 1.50268555 74.51879883 C1.45986466 81.10482626 1.41359207 87.69081869 1.36312145 94.27679211 C1.33650354 97.76611014 1.31165014 101.25542116 1.29092598 104.74477959 C1.26776327 108.63385523 1.23689642 112.5228483 1.20532227 116.41186523 C1.1995668 117.57711227 1.19381134 118.74235931 1.18788147 119.94291687 C1.17809265 120.99606079 1.16830383 122.04920471 1.15821838 123.13426208 C1.15176583 124.05513328 1.14531328 124.97600447 1.1386652 125.92478085 C1 128 1 128 0 129 C-2.8116338 129.08861992 -5.59858255 129.11522355 -8.41015625 129.09765625 C-9.25219101 129.0962413 -10.09422577 129.09482635 -10.96177673 129.09336853 C-13.66205335 129.08775263 -16.36224828 129.07519748 -19.0625 129.0625 C-20.88867068 129.05748705 -22.71484266 129.05292379 -24.54101562 129.04882812 C-29.02737542 129.03777804 -33.51367384 129.02050279 -38 129 C-38 128.34 -38 127.68 -38 127 C-25.46 127 -12.92 127 0 127 C0 85.09 0 43.18 0 0 Z " fill="#373435" transform="translate(244,154)"/>
<path d="M0 0 C55.11 0 110.22 0 167 0 C166.67 0.66 166.34 1.32 166 2 C111.88 1.67 57.76 1.34 2 1 C2 10.57 2 20.14 2 30 C17.51 30 33.02 30 49 30 C48.67 50.46 48.34 70.92 48 92 C47.67 92 47.34 92 47 92 C47 72.2 47 52.4 47 32 C31.90635432 32.03960749 31.90635432 32.03960749 16.81274414 32.09008789 C14.92854875 32.09300692 13.04435273 32.09555551 11.16015625 32.09765625 C9.67799622 32.1053302 9.67799622 32.1053302 8.16589355 32.11315918 C6.76518616 32.11334045 6.76518616 32.11334045 5.33618164 32.11352539 C4.52121719 32.115746 3.70625275 32.11796661 2.86659241 32.12025452 C1 32 1 32 0 31 C0 20.77 0 10.54 0 0 Z " fill="#323033" transform="translate(157,124)"/>
<path d="M0 0 C15.84 0 31.68 0 48 0 C48 24.75 48 49.5 48 75 C47.67 75 47.34 75 47 75 C47 50.58 47 26.16 47 1 C31.82 1 16.64 1 1 1 C0.67 3.31 0.34 5.62 0 8 C0.66 8.33 1.32 8.66 2 9 C-1 11 -1 11 -4 11 C-2.78322054 7.2627488 -1.46233512 3.6558378 0 0 Z " fill="#151415" transform="translate(390,124)"/>
<path d="M0 0 C0.66 0 1.32 0 2 0 C2 33.66 2 67.32 2 102 C1.67 102 1.34 102 1 102 C1 70.32 1 38.64 1 6 C0.34 6 -0.32 6 -1 6 C-1.33 6.99 -1.66 7.98 -2 9 C-1.125 2.25 -1.125 2.25 0 0 Z " fill="#1D1B1C" transform="translate(397,178)"/>
<path d="M0 0 C1.65 1.65 3.3 3.3 5 5 C4.34 6.32 3.68 7.64 3 9 C2.67 8.34 2.34 7.68 2 7 C2.00523682 7.5762915 2.01047363 8.15258301 2.01586914 8.74633789 C2.13100358 23.52872601 1.77597347 38.23793017 1 53 C0.67 53 0.34 53 0 53 C-1.19597968 44.80848836 -1.1520045 36.63777492 -1.13037109 28.37963867 C-1.12500523 25.93987842 -1.13034415 23.50030158 -1.13671875 21.06054688 C-1.13605799 19.48697877 -1.13477686 17.91341077 -1.1328125 16.33984375 C-1.13483673 15.62191147 -1.13686096 14.90397919 -1.13894653 14.16429138 C-1.11705956 9.36569577 -0.67171576 4.75237234 0 0 Z " fill="#131313" transform="translate(314,179)"/>
<path d="M0 0 C3.34118596 3.84236386 5.02499388 8.37177811 7 13 C7.66402859 14.5011697 8.33065539 16.00119306 9 17.5 C11 22 13 26.5 15 31 C15.66 31 16.32 31 17 31 C17 32.98 17 34.96 17 37 C16.01 37 15.02 37 14 37 C12.01616354 33.29108836 10.8198794 30.09939702 10 26 C9.34 25.67 8.68 25.34 8 25 C6.45171887 21.21531279 5.75987159 18.08218297 6 14 C5.01 13.67 4.02 13.34 3 13 C2.05078125 11.07421875 2.05078125 11.07421875 1.3125 8.6875 C0.93544922 7.51767578 0.93544922 7.51767578 0.55078125 6.32421875 C0 4 0 4 0 0 Z " fill="#5D5B5C" transform="translate(342,165)"/>
<path d="M0 0 C3 1 3 1 4.5703125 3.765625 C5.08335937 4.91546875 5.59640625 6.0653125 6.125 7.25 C6.64320313 8.38953125 7.16140625 9.5290625 7.6953125 10.703125 C9 14 9 14 10 19 C23.365 19.495 23.365 19.495 37 20 C37 20.33 37 20.66 37 21 C27.76 21 18.52 21 9 21 C0 3 0 3 0 0 Z " fill="#666265" transform="translate(333,225)"/>
<path d="M0 0 C14.52 0 29.04 0 44 0 C44 0.33 44 0.66 44 1 C29.81 1 15.62 1 1 1 C0.67 3.31 0.34 5.62 0 8 C0.66 8.33 1.32 8.66 2 9 C-1 11 -1 11 -4 11 C-2.78322054 7.2627488 -1.46233512 3.6558378 0 0 Z " fill="#2D2B2D" transform="translate(390,124)"/>
<path d="M0 0 C2.42138965 2.18130853 3.68552122 4.12669889 4.9375 7.125 C5.27136719 7.91261719 5.60523438 8.70023438 5.94921875 9.51171875 C6.46935547 10.74341797 6.46935547 10.74341797 7 12 C8.08397872 14.38623303 9.17318121 16.76997595 10.265625 19.15234375 C11 21 11 21 11 23 C10.01 22.67 9.02 22.34 8 22 C8 21.34 8 20.68 8 20 C7.01 19.67 6.02 19.34 5 19 C2.99592558 15.11440248 2.25057352 10.9459712 1.375 6.6875 C1.11460937 5.43324219 0.85421875 4.17898437 0.5859375 2.88671875 C0.39257812 1.93410156 0.19921875 0.98148438 0 0 Z " fill="#454142" transform="translate(325,128)"/>
<path d="M0 0 C0.33 0 0.66 0 1 0 C1.33 1.98 1.66 3.96 2 6 C2.33 6 2.66 6 3 6 C3.11269443 12.1105424 2.89604368 17.95170514 2 24 C1.34 24 0.68 24 0 24 C0 16.08 0 8.16 0 0 Z " fill="#0E0D0D" transform="translate(313,223)"/>
<path d="M0 0 C0.33 0 0.66 0 1 0 C1.33 2.31 1.66 4.62 2 7 C1.360625 7.226875 0.72125 7.45375 0.0625 7.6875 C-2.27193661 8.85250896 -2.27193661 8.85250896 -2.75 11.625 C-2.8325 12.40875 -2.915 13.1925 -3 14 C-3.99 14.33 -4.98 14.66 -6 15 C-4.36041242 9.76727367 -2.61047965 4.84803364 0 0 Z " fill="#3D3B3C" transform="translate(385,136)"/>
<path d="M0 0 C1.65 1.65 3.3 3.3 5 5 C4.34 6.32 3.68 7.64 3 9 C2.67 8.34 2.34 7.68 2 7 C1.67 11.95 1.34 16.9 1 22 C0.67 22 0.34 22 0 22 C-1.33257403 7.40318907 -1.33257403 7.40318907 0 0 Z " fill="#373537" transform="translate(314,179)"/>
<path d="M0 0 C0.804375 0.66 1.60875 1.32 2.4375 2 C4.58961915 4.10254514 4.58961915 4.10254514 6 4 C6 5.98 6 7.96 6 10 C5.01 10 4.02 10 3 10 C0.96564469 6.27034861 0 4.33094958 0 0 Z " fill="#3A3739" transform="translate(353,192)"/>
<path d="M0 0 C1.65 0 3.3 0 5 0 C3.68 0.33 2.36 0.66 1 1 C0.67 3.31 0.34 5.62 0 8 C0.66 8.33 1.32 8.66 2 9 C-1 11 -1 11 -4 11 C-2.7874262 7.27566618 -1.49140021 3.62197194 0 0 Z " fill="#4E4B4F" transform="translate(390,124)"/>
<path d="M0 0 C0.33 0 0.66 0 1 0 C0.94004678 1.79260132 0.8512759 3.58425795 0.75 5.375 C0.70359375 6.37273437 0.6571875 7.37046875 0.609375 8.3984375 C0 11 0 11 -2.046875 12.3515625 C-2.69140625 12.56554687 -3.3359375 12.77953125 -4 13 C-3.40895235 8.15340923 -2.02055843 4.39251833 0 0 Z " fill="#5A5556" transform="translate(372,164)"/>
<path d="M0 0 C0.66 0 1.32 0 2 0 C2 4.62 2 9.24 2 14 C1.67 14 1.34 14 1 14 C1 11.36 1 8.72 1 6 C0.34 6 -0.32 6 -1 6 C-1.33 6.99 -1.66 7.98 -2 9 C-1.125 2.25 -1.125 2.25 0 0 Z " fill="#262425" transform="translate(397,178)"/>
<path d="M0 0 C0.66 0 1.32 0 2 0 C1.33501617 4.38889325 -0.18757677 7.9811485 -2 12 C-2.33 12 -2.66 12 -3 12 C-2.88541307 10.56163249 -2.75790884 9.12429034 -2.625 7.6875 C-2.55539062 6.88699219 -2.48578125 6.08648437 -2.4140625 5.26171875 C-2 3 -2 3 0 0 Z " fill="#575556" transform="translate(384,209)"/>
<path d="M0 0 C0.33 0.66 0.66 1.32 1 2 C0.26821134 4.07196631 -0.55899003 6.1108552 -1.4375 8.125 C-1.91058594 9.22070312 -2.38367188 10.31640625 -2.87109375 11.4453125 C-3.24363281 12.28835937 -3.61617188 13.13140625 -4 14 C-5.15941038 10.52176885 -4.70820884 8.54104422 -4 5 C-3.34 5 -2.68 5 -2 5 C-1.34 3.35 -0.68 1.7 0 0 Z " fill="#656464" transform="translate(391,195)"/>
<path d="M0 0 C0.33 0 0.66 0 1 0 C1.17942163 3.94727588 1.09350689 6.5980513 -1 10 C-1.66 10 -2.32 10 -3 10 C-3 10.99 -3 11.98 -3 13 C-3.66 13 -4.32 13 -5 13 C-4.731875 12.34 -4.46375 11.68 -4.1875 11 C-2.74294953 7.35060933 -1.37128822 3.67754567 0 0 Z " fill="#757474" transform="translate(364,182)"/>
<path d="M0 0 C0.33 0 0.66 0 1 0 C1 1.98 1 3.96 1 6 C1.66 6.33 2.32 6.66 3 7 C0 9 0 9 -3 9 C-2.01 6.03 -1.02 3.06 0 0 Z " fill="#4C4849" transform="translate(378,151)"/>
<path d="M0 0 C2.67901932 2.31881505 3.66204403 4.31814468 4.6875 7.6875 C4.93886719 8.49574219 5.19023437 9.30398437 5.44921875 10.13671875 C5.63097656 10.75160156 5.81273437 11.36648437 6 12 C2.59156258 9.11593757 1.13408616 7.6291735 0.1875 3.1875 C0.125625 2.135625 0.06375 1.08375 0 0 Z " fill="#676567" transform="translate(325,128)"/>
<path d="M0 0 C0.66 0 1.32 0 2 0 C1.46930939 3.82097239 0.50298434 6.06171403 -2 9 C-1.125 2.25 -1.125 2.25 0 0 Z " fill="#696868" transform="translate(379,221)"/>
<path d="M0 0 C0.33 0 0.66 0 1 0 C1.25 5.625 1.25 5.625 -1 9 C-1.66 9 -2.32 9 -3 9 C-2.01 6.03 -1.02 3.06 0 0 Z " fill="#625D5F" transform="translate(382,142)"/>
<path d="M0 0 C0.99 0.33 1.98 0.66 3 1 C4.1875 4.0625 4.1875 4.0625 5 7 C2.5 5.75 2.5 5.75 0 4 C0 2.68 0 1.36 0 0 Z " fill="#6D6C6D" transform="translate(350,186)"/>
</svg>
