<?xml version="1.0" encoding="UTF-8"?>
<svg version="1.1" xmlns="http://www.w3.org/2000/svg" width="282" height="282">
<path d="M0 0 C55.44 0 110.88 0 168 0 C173.62226847 11.24453694 173.62226847 11.24453694 175.46484375 15.33203125 C175.86944824 16.22639893 176.27405273 17.1207666 176.69091797 18.04223633 C177.30797607 19.41351685 177.30797607 19.41351685 177.9375 20.8125 C178.81350388 22.75013484 179.68980467 24.68763548 180.56640625 26.625 C180.98422363 27.54925781 181.40204102 28.47351563 181.83251953 29.42578125 C183.33060584 32.72896445 184.84990159 36.02170242 186.375 39.3125 C188.63189812 44.18765353 190.83339479 49.08417306 193 54 C193.66617993 55.50021623 194.33285352 57.00021334 195 58.5 C195.66669914 59.99998557 196.33336156 61.49998745 197 63 C197.52980469 64.19206055 197.52980469 64.19206055 198.0703125 65.40820312 C199.046875 67.60546875 200.0234375 69.80273437 201 72 C201.51949219 70.82824219 202.03898438 69.65648437 202.57421875 68.44921875 C203.27862009 66.86196774 203.98304865 65.27472881 204.6875 63.6875 C205.02716797 62.92115234 205.36683594 62.15480469 205.71679688 61.36523438 C207.58203496 57.16409065 209.46433771 52.97153726 211.37109375 48.7890625 C213.29755851 44.56017419 215.19782214 40.32036876 217.0859375 36.07421875 C217.63015003 34.85218757 218.17442149 33.63018264 218.71875 32.40820312 C219.54489501 30.55351731 220.37014456 28.69846244 221.19238281 26.84204102 C222.00805297 25.00141048 222.82794351 23.16270323 223.6484375 21.32421875 C224.12458496 20.25260498 224.60073242 19.18099121 225.09130859 18.0769043 C227.93961471 11.9930128 230.99578351 6.00843297 234 0 C249.84 0 265.68 0 282 0 C282 52.47 282 104.94 282 159 C242 160 242 160 240 159 C239.67 128.31 239.34 97.62 239 66 C232.1124558 82.51488927 232.1124558 82.51488927 225.28515625 99.0546875 C223.64648438 103.03125 223.64648438 103.03125 222.85620117 104.9453125 C222.31139559 106.26987213 221.76990168 107.59579727 221.23120117 108.92285156 C220.42438045 110.90792788 219.60603284 112.88789004 218.78515625 114.8671875 C218.31988525 116.00269043 217.85461426 117.13819336 217.37524414 118.30810547 C216 121 216 121 213 123 C208.55980239 123.57372006 204.09798196 123.55525496 199.625 123.625 C198.39265625 123.68300781 197.1603125 123.74101562 195.890625 123.80078125 C187.24094406 123.92273988 187.24094406 123.92273988 184.26049805 121.70654297 C182.80853723 119.54574396 181.93333532 117.43362128 181 115 C180.51112305 113.89833496 180.02224609 112.79666992 179.51855469 111.66162109 C177.79079875 107.76312994 176.17486034 103.82229175 174.5625 99.875 C173.73544277 97.86924639 172.90635073 95.8643415 172.07723999 93.85943604 C171.52992519 92.53507987 170.98355306 91.21033372 170.43814087 89.88519287 C168.10764083 84.22964539 165.70317896 78.60779915 163.27709961 72.99267578 C162.14595489 70.34202161 161.0652419 67.67758059 160 65 C160.00222061 66.08914703 160.00444122 67.17829407 160.00672913 68.30044556 C160.02701104 78.57044411 160.0419965 88.8404386 160.05181217 99.11045265 C160.05702815 104.39021261 160.0641025 109.66995639 160.07543945 114.94970703 C160.08631395 120.04604628 160.09228653 125.14236998 160.09487724 130.23871994 C160.09672326 132.18194193 160.10032805 134.12516309 160.10573006 136.06837845 C160.113001 138.79251183 160.11398838 141.51658112 160.11352539 144.24072266 C160.11712067 145.04201599 160.12071594 145.84330933 160.12442017 146.66888428 C160.1230455 147.41757782 160.12167084 148.16627136 160.12025452 148.93765259 C160.12163721 149.90276984 160.12163721 149.90276984 160.12304783 150.88738441 C159.96431029 153.61275879 159.44880812 156.30715125 159 159 C145.8 159 132.6 159 119 159 C119 117.42 119 75.84 119 33 C109.1 33 99.2 33 89 33 C89 74.58 89 116.16 89 159 C75.418005 162.39549875 60.99515487 159.36829355 47 159 C47 117.42 47 75.84 47 33 C31.82 33 16.64 33 1 33 C0.67 32.67 0.34 32.34 0 32 C0 21.44 0 10.88 0 0 Z " fill="#FCFCFC" transform="translate(0,63)"/>
<path d="M0 0 C55.44 0 110.88 0 168 0 C173.62226847 11.24453694 173.62226847 11.24453694 175.46484375 15.33203125 C175.86944824 16.22639893 176.27405273 17.1207666 176.69091797 18.04223633 C177.30797607 19.41351685 177.30797607 19.41351685 177.9375 20.8125 C178.81350388 22.75013484 179.68980467 24.68763548 180.56640625 26.625 C180.98422363 27.54925781 181.40204102 28.47351563 181.83251953 29.42578125 C183.33060584 32.72896445 184.84990159 36.02170242 186.375 39.3125 C188.63189812 44.18765353 190.83339479 49.08417306 193 54 C193.66617993 55.50021623 194.33285352 57.00021334 195 58.5 C195.66669914 59.99998557 196.33336156 61.49998745 197 63 C197.52980469 64.19206055 197.52980469 64.19206055 198.0703125 65.40820312 C199.046875 67.60546875 200.0234375 69.80273437 201 72 C201.51949219 70.82824219 202.03898438 69.65648437 202.57421875 68.44921875 C203.27862009 66.86196774 203.98304865 65.27472881 204.6875 63.6875 C205.02716797 62.92115234 205.36683594 62.15480469 205.71679688 61.36523438 C207.58203496 57.16409065 209.46433771 52.97153726 211.37109375 48.7890625 C213.29755851 44.56017419 215.19782214 40.32036876 217.0859375 36.07421875 C217.63015003 34.85218757 218.17442149 33.63018264 218.71875 32.40820312 C219.54489501 30.55351731 220.37014456 28.69846244 221.19238281 26.84204102 C222.00805297 25.00141048 222.82794351 23.16270323 223.6484375 21.32421875 C224.12458496 20.25260498 224.60073242 19.18099121 225.09130859 18.0769043 C227.93961471 11.9930128 230.99578351 6.00843297 234 0 C249.84 0 265.68 0 282 0 C282 52.47 282 104.94 282 159 C242 160 242 160 240 159 C239.67 128.31 239.34 97.62 239 66 C232.1124558 82.51488927 232.1124558 82.51488927 225.28515625 99.0546875 C223.64648438 103.03125 223.64648438 103.03125 222.85620117 104.9453125 C222.31139559 106.26987213 221.76990168 107.59579727 221.23120117 108.92285156 C220.42438045 110.90792788 219.60603284 112.88789004 218.78515625 114.8671875 C218.31988525 116.00269043 217.85461426 117.13819336 217.37524414 118.30810547 C216 121 216 121 213 123 C208.55980239 123.57372006 204.09798196 123.55525496 199.625 123.625 C198.39265625 123.68300781 197.1603125 123.74101562 195.890625 123.80078125 C187.24094406 123.92273988 187.24094406 123.92273988 184.26049805 121.70654297 C182.80853723 119.54574396 181.93333532 117.43362128 181 115 C180.51112305 113.89833496 180.02224609 112.79666992 179.51855469 111.66162109 C177.79079875 107.76312994 176.17486034 103.82229175 174.5625 99.875 C173.73544277 97.86924639 172.90635073 95.8643415 172.07723999 93.85943604 C171.52992519 92.53507987 170.98355306 91.21033372 170.43814087 89.88519287 C168.10764083 84.22964539 165.70317896 78.60779915 163.27709961 72.99267578 C162.14595489 70.34202161 161.0652419 67.67758059 160 65 C160.00222061 66.08914703 160.00444122 67.17829407 160.00672913 68.30044556 C160.02701104 78.57044411 160.0419965 88.8404386 160.05181217 99.11045265 C160.05702815 104.39021261 160.0641025 109.66995639 160.07543945 114.94970703 C160.08631395 120.04604628 160.09228653 125.14236998 160.09487724 130.23871994 C160.09672326 132.18194193 160.10032805 134.12516309 160.10573006 136.06837845 C160.113001 138.79251183 160.11398838 141.51658112 160.11352539 144.24072266 C160.11712067 145.04201599 160.12071594 145.84330933 160.12442017 146.66888428 C160.1230455 147.41757782 160.12167084 148.16627136 160.12025452 148.93765259 C160.12163721 149.90276984 160.12163721 149.90276984 160.12304783 150.88738441 C159.96431029 153.61275879 159.44880812 156.30715125 159 159 C145.8 159 132.6 159 119 159 C119 117.42 119 75.84 119 33 C109.1 33 99.2 33 89 33 C89 74.58 89 116.16 89 159 C75.418005 162.39549875 60.99515487 159.36829355 47 159 C47 117.42 47 75.84 47 33 C31.82 33 16.64 33 1 33 C0.67 32.67 0.34 32.34 0 32 C0 21.44 0 10.88 0 0 Z M2 1 C2 10.9 2 20.8 2 31 C17.51 31 33.02 31 49 31 C49 72.58 49 114.16 49 157 C61.54 157 74.08 157 87 157 C87 115.09 87 73.18 87 30 C103.335 30.495 103.335 30.495 120 31 C120.33 72.58 120.66 114.16 121 157 C133.21 157 145.42 157 158 157 C158.33 124.33 158.66 91.66 159 58 C159.99 60.475 159.99 60.475 161 63 C161.66 63 162.32 63 163 63 C163.226875 64.03125 163.45375 65.0625 163.6875 66.125 C164.73447917 70.30538447 166.08116489 74.37110512 167.5 78.4375 C167.9228125 79.65308594 168.345625 80.86867188 168.78125 82.12109375 C169.67925204 85.11017501 169.67925204 85.11017501 172 86 C172.74559456 87.86398639 173.48012001 89.7333151 174.15234375 91.625 C176.74704246 98.89493923 179.80976746 105.97470069 183 113 C183.66 113 184.32 113 185 113 C185.33 115.31 185.66 117.62 186 120 C190.43728151 120.11586755 194.87417591 120.18714058 199.3125 120.25 C200.57513672 120.28351563 201.83777344 120.31703125 203.13867188 120.3515625 C204.34716797 120.36445313 205.55566406 120.37734375 206.80078125 120.390625 C208.47394409 120.4220459 208.47394409 120.4220459 210.1809082 120.45410156 C213.10080201 120.27020189 213.10080201 120.27020189 214.84399414 118.11645508 C216.07793004 115.85732301 216.65490823 113.96317488 217.125 111.4375 C217.6235968 108.84392193 218.16094802 106.51715595 219 104 C219.66 104 220.32 104 221 104 C221.14695313 103.40574219 221.29390625 102.81148438 221.4453125 102.19921875 C222.76052185 97.33899108 224.35617824 93.11898723 226.875 88.75 C229.91569975 83.4438284 231.87762344 78.01846628 233.8359375 72.23828125 C234.81630799 69.51100898 235.89344281 67.05208421 237.25 64.5 C238.89988846 61.20022308 239.63550741 58.64492585 240 55 C240.66 55 241.32 55 242 55 C242 88.66 242 122.32 242 157 C254.87 157 267.74 157 281 157 C281 105.52 281 54.04 281 1 C265.82 1 250.64 1 235 1 C235 1.99 235 2.98 235 4 C234.34 4 233.68 4 233 4 C232.67386719 4.86882812 232.34773437 5.73765625 232.01171875 6.6328125 C231.57472656 7.78523438 231.13773438 8.93765625 230.6875 10.125 C230.25824219 11.26195313 229.82898438 12.39890625 229.38671875 13.5703125 C228.0742834 16.81627936 226.60917092 19.89234187 225 23 C222.08449761 28.6566558 219.31803759 34.36382093 216.75 40.1875 C215.99976563 41.87939453 215.99976563 41.87939453 215.234375 43.60546875 C213.96442742 47.0978246 213.39344252 50.31381829 213 54 C212.01 54.33 211.02 54.66 210 55 C208.62177399 57.70455602 208.62177399 57.70455602 207.5 61 C207.07332031 62.16917969 206.64664063 63.33835938 206.20703125 64.54296875 C204.76145859 68.68320111 203.34426532 72.82570243 202 77 C198.42515471 73.88813892 197.00642723 71.06770483 195.4375 66.625 C193.87046467 62.23730108 192.08437497 58.16323571 190 54 C188.92899266 51.11475959 187.94508783 48.21008064 186.96484375 45.29296875 C186.22630194 42.84191562 186.22630194 42.84191562 184 42 C183.09876521 39.90289597 182.27700418 37.77123716 181.5 35.625 C180.20678851 32.06866841 179.10283575 29.15425362 177 26 C176.54451115 24.51132911 176.13218814 23.00915318 175.75 21.5 C174.28929823 16.36495562 171.99580757 12.03762187 169.3046875 7.4453125 C168 5 168 5 167 1 C112.55 1 58.1 1 2 1 Z " fill="#2F3030" transform="translate(0,63)"/>
<path d="M0 0 C10.23 0 20.46 0 31 0 C31 41.25 31 82.5 31 125 C43.54 125 56.08 125 69 125 C69 92 69 59 69 25 C69.99 25.99 70.98 26.98 72 28 C72 28.99 72 29.98 72 31 C72.66 31 73.32 31 74 31 C75.17461555 34.10121711 76.33830456 37.20642241 77.5 40.3125 C77.83386719 41.19357422 78.16773438 42.07464844 78.51171875 42.98242188 C78.82753906 43.82998047 79.14335937 44.67753906 79.46875 45.55078125 C79.76201172 46.33106689 80.05527344 47.11135254 80.35742188 47.9152832 C81 50 81 50 81 53 C82.485 53.495 82.485 53.495 84 54 C84.77597994 55.85560421 85.53431608 57.72135866 86.18359375 59.625 C87.03588406 62.10438999 88.00356148 64.51270665 89 66.9375 C90.86537029 71.56505321 92.48469472 76.24745162 94 81 C94.66 81 95.32 81 96 81 C96.495 84.465 96.495 84.465 97 88 C105.91 87.67 114.82 87.34 124 87 C126.27791603 82.44416795 127.70376121 78.81460121 129 74 C129.33 73.34 129.66 72.68 130 72 C130.66 72 131.32 72 132 72 C132.07476562 71.40574219 132.14953125 70.81148438 132.2265625 70.19921875 C133.21514558 63.96726852 135.25547655 59.42352319 138.4140625 54 C140.75541888 49.57103029 142.28602683 44.92851801 143.8984375 40.1953125 C145.10236697 36.70306318 146.47861202 33.36306816 148 30 C148.33 30 148.66 30 149 30 C149.22609601 34.97605469 148.75388586 38.42326745 146.7265625 42.96484375 C146.23599365 44.08391113 145.7454248 45.20297852 145.23999023 46.35595703 C144.70704346 47.53786621 144.17409668 48.71977539 143.625 49.9375 C142.80027537 51.79986908 141.97972684 53.66404096 141.1594696 55.52838135 C140.60098638 56.79706129 140.04100984 58.06508487 139.47956848 59.3324585 C137.61045958 63.56292706 135.82292609 67.82014299 134.08203125 72.10546875 C133.63456543 73.20576416 133.18709961 74.30605957 132.72607422 75.43969727 C131.88149363 77.52746592 131.04304749 79.61772904 130.21142578 81.71069336 C129.64077393 83.11073608 129.64077393 83.11073608 129.05859375 84.5390625 C128.73173584 85.35584473 128.40487793 86.17262695 128.06811523 87.01416016 C127 89 127 89 124 91 C119.55980239 91.57372006 115.09798196 91.55525496 110.625 91.625 C109.39265625 91.68300781 108.1603125 91.74101562 106.890625 91.80078125 C98.24094406 91.92273988 98.24094406 91.92273988 95.26049805 89.70654297 C93.80853723 87.54574396 92.93333532 85.43362128 92 83 C91.51112305 81.89833496 91.02224609 80.79666992 90.51855469 79.66162109 C88.79079875 75.76312994 87.17486034 71.82229175 85.5625 67.875 C84.73544277 65.86924639 83.90635073 63.8643415 83.07723999 61.85943604 C82.52992519 60.53507987 81.98355306 59.21033372 81.43814087 57.88519287 C79.10764083 52.22964539 76.70317896 46.60779915 74.27709961 40.99267578 C73.14595489 38.34202161 72.0652419 35.67758059 71 33 C71.00222061 34.08914703 71.00444122 35.17829407 71.00672913 36.30044556 C71.02701104 46.57044411 71.0419965 56.8404386 71.05181217 67.11045265 C71.05702815 72.39021261 71.0641025 77.66995639 71.07543945 82.94970703 C71.08631395 88.04604628 71.09228653 93.14236998 71.09487724 98.23871994 C71.09672326 100.18194193 71.10032805 102.12516309 71.10573006 104.06837845 C71.113001 106.79251183 71.11398838 109.51658112 71.11352539 112.24072266 C71.11712067 113.04201599 71.12071594 113.84330933 71.12442017 114.66888428 C71.1230455 115.41757782 71.12167084 116.16627136 71.12025452 116.93765259 C71.12117631 117.58106409 71.1220981 118.22447559 71.12304783 118.88738441 C70.96431029 121.61275879 70.44880812 124.30715125 70 127 C56.8 127 43.6 127 30 127 C30 85.42 30 43.84 30 1 C20.1 1 10.2 1 0 1 C0 0.67 0 0.34 0 0 Z " fill="#191919" transform="translate(89,95)"/>
<path d="M0 0 C10.89 0 21.78 0 33 0 C34 1 34 1 34.12304783 3.09083652 C34.12212604 4.01908206 34.12120424 4.94732759 34.12025452 5.90370178 C34.12231651 7.49603889 34.12231651 7.49603889 34.12442017 9.12054443 C34.11902725 10.8824411 34.11902725 10.8824411 34.11352539 12.67993164 C34.11367142 13.90902756 34.11381744 15.13812347 34.1139679 16.40446472 C34.11338892 19.78448672 34.10835964 23.16444829 34.10139394 26.54445958 C34.09515988 30.07321194 34.09455656 33.60196503 34.09336853 37.13072205 C34.09025537 43.81723119 34.08204218 50.50372406 34.07201904 57.19022602 C34.06085744 64.80074303 34.05534733 72.4112608 34.05032361 80.02178395 C34.03985956 95.68119874 34.02226041 111.34059727 34 127 C33.67 127 33.34 127 33 127 C33 85.75 33 44.5 33 2 C22.77 2 12.54 2 2 2 C2 43.91 2 85.82 2 129 C-11.581995 132.39549875 -26.00484513 129.36829355 -40 129 C-39.67 86.76 -39.34 44.52 -39 1 C-38.67 1 -38.34 1 -38 1 C-38 42.58 -38 84.16 -38 127 C-25.46 127 -12.92 127 0 127 C0 85.09 0 43.18 0 0 Z " fill="#5C5D5D" transform="translate(87,93)"/>
<path d="M0 0 C0.66 0 1.32 0 2 0 C2 41.58 2 83.16 2 126 C13.22 126 24.44 126 36 126 C36 92.34 36 58.68 36 24 C37.32 23.67 38.64 23.34 40 23 C40 24.65 40 26.3 40 28 C39.67 28 39.34 28 39 28 C38.67 60.67 38.34 93.34 38 127 C25.79 127 13.58 127 1 127 C0.67 85.09 0.34 43.18 0 0 Z " fill="#C7C8C7" transform="translate(120,93)"/>
<path d="M0 0 C10.23 0 20.46 0 31 0 C31 41.25 31 82.5 31 125 C43.54 125 56.08 125 69 125 C69 92 69 59 69 25 C72.31012244 28.31012244 72.50351065 29.53159589 73 34 C72.34 33.67 71.68 33.34 71 33 C71.00222061 34.08914703 71.00444122 35.17829407 71.00672913 36.30044556 C71.02701104 46.57044411 71.0419965 56.8404386 71.05181217 67.11045265 C71.05702815 72.39021261 71.0641025 77.66995639 71.07543945 82.94970703 C71.08631395 88.04604628 71.09228653 93.14236998 71.09487724 98.23871994 C71.09672326 100.18194193 71.10032805 102.12516309 71.10573006 104.06837845 C71.113001 106.79251183 71.11398838 109.51658112 71.11352539 112.24072266 C71.11712067 113.04201599 71.12071594 113.84330933 71.12442017 114.66888428 C71.1230455 115.41757782 71.12167084 116.16627136 71.12025452 116.93765259 C71.12117631 117.58106409 71.1220981 118.22447559 71.12304783 118.88738441 C70.96431029 121.61275879 70.44880812 124.30715125 70 127 C56.8 127 43.6 127 30 127 C30 85.42 30 43.84 30 1 C20.1 1 10.2 1 0 1 C0 0.67 0 0.34 0 0 Z " fill="#1B1B1B" transform="translate(89,95)"/>
<path d="M0 0 C2.05264866 2.05264866 2.56528526 3.13767959 3.5078125 5.80859375 C3.77207031 6.55560547 4.03632813 7.30261719 4.30859375 8.07226562 C4.57800781 8.85279297 4.84742188 9.63332031 5.125 10.4375 C5.40214844 11.21416016 5.67929688 11.99082031 5.96484375 12.79101562 C8 18.61076047 8 18.61076047 8 22 C8.99 22.33 9.98 22.66 11 23 C11.77597994 24.85560421 12.53431608 26.72135866 13.18359375 28.625 C14.03588406 31.10438999 15.00356148 33.51270665 16 35.9375 C17.86537029 40.56505321 19.48469472 45.24745162 21 50 C21.66 50 22.32 50 23 50 C23.33 52.31 23.66 54.62 24 57 C28.45859862 56.86164197 32.91679786 56.71305421 37.375 56.5625 C38.64601562 56.52318359 39.91703125 56.48386719 41.2265625 56.44335938 C43.04414063 56.38051758 43.04414063 56.38051758 44.8984375 56.31640625 C46.57945557 56.26141968 46.57945557 56.26141968 48.29443359 56.20532227 C50.96712771 56.17403987 50.96712771 56.17403987 53 55 C52.67 55.99 52.34 56.98 52 58 C42.1 58 32.2 58 22 58 C16.37786434 45.63130156 16.37786434 45.63130156 14.31640625 40.73046875 C13.86628174 39.66352783 13.41615723 38.59658691 12.95239258 37.49731445 C12.00534138 35.24205834 11.05857561 32.98668235 10.11206055 30.73120117 C7.10070233 23.55863918 7.10070233 23.55863918 3.953125 16.4453125 C3.41171875 15.24648437 2.8703125 14.04765625 2.3125 12.8125 C1.62607422 11.33716797 1.62607422 11.33716797 0.92578125 9.83203125 C-0.18175339 6.44400333 -0.16318484 3.54155197 0 0 Z " fill="#4A4A4A" transform="translate(162,126)"/>
<path d="M0 0 C1.32256051 3.96768152 0.29090379 5.47352418 -1.25 9.3125 C-1.68828125 10.42238281 -2.1265625 11.53226563 -2.578125 12.67578125 C-3.93834881 15.85586494 -5.42191635 18.92315437 -7 22 C-7.39960938 22.79921875 -7.79921875 23.5984375 -8.2109375 24.421875 C-11.140625 30.28125 -14.0703125 36.140625 -17 42 C-18.34110525 37.97668424 -17.23282188 36.75336923 -15.4296875 32.96875 C-15.15158234 32.37759399 -14.87347717 31.78643799 -14.58694458 31.17736816 C-13.69211766 29.28041613 -12.78396069 27.39021411 -11.875 25.5 C-11.28554022 24.25824791 -10.69698887 23.01606416 -10.109375 21.7734375 C-8.95897586 19.34200517 -7.80445968 16.91269263 -6.64746094 14.484375 C-4.37637543 9.68103588 -2.17739031 4.84640915 0 0 Z " fill="#161717" transform="translate(233,64)"/>
<path d="M0 0 C0.66 0 1.32 0 2 0 C1.55149342 1.81495662 1.09090429 3.62693134 0.625 5.4375 C0.24214844 6.95150391 0.24214844 6.95150391 -0.1484375 8.49609375 C-1 11 -1 11 -3 12 C-3.86215527 13.97064061 -4.64029158 15.97838192 -5.375 18 C-7.39401492 23.43396597 -9.56694366 28.73970501 -12 34 C-13.32 33.34 -14.64 32.68 -16 32 C-15.67 31.34 -15.34 30.68 -15 30 C-14.01 30.33 -13.02 30.66 -12 31 C-11.90332031 29.98550781 -11.80664062 28.97101563 -11.70703125 27.92578125 C-10.95898434 23.77226111 -9.66789501 20.89809022 -7.6875 17.1875 C-4.75478204 11.58094399 -2.20100216 5.93313625 0 0 Z " fill="#2C2D2D" transform="translate(214,106)"/>
<path d="M0 0 C2.05264866 2.05264866 2.56528526 3.13767959 3.5078125 5.80859375 C3.77207031 6.55560547 4.03632813 7.30261719 4.30859375 8.07226562 C4.57800781 8.85279297 4.84742188 9.63332031 5.125 10.4375 C5.40214844 11.21416016 5.67929688 11.99082031 5.96484375 12.79101562 C8 18.61076047 8 18.61076047 8 22 C8.99 22.33 9.98 22.66 11 23 C11.87890625 24.63671875 11.87890625 24.63671875 12.5625 26.6875 C12.80742187 27.40292969 13.05234375 28.11835938 13.3046875 28.85546875 C13.53414062 29.56316406 13.76359375 30.27085937 14 31 C14.391875 32.155 14.78375 33.31 15.1875 34.5 C15.455625 35.325 15.72375 36.15 16 37 C8.60160173 33.30080087 3.91933547 17.0500856 0.90234375 9.71484375 C-0.25697233 6.22685814 -0.41234304 3.62861878 0 0 Z " fill="#2C2C2C" transform="translate(162,126)"/>
<path d="M0 0 C0.66 0 1.32 0 2 0 C3.23021044 2.46042088 4.46007969 4.9209979 5.6875 7.3828125 C6.71393979 9.42958232 7.75955976 11.46673608 8.8125 13.5 C10 16 10 16 10 18 C9.34 18 8.68 18 8 18 C6.84583494 15.94178919 5.70164153 13.87900528 4.5625 11.8125 C3.92441406 10.66394531 3.28632813 9.51539062 2.62890625 8.33203125 C1.21240965 5.43449743 0.42360107 3.16805872 0 0 Z " fill="#1C1C1C" transform="translate(166,63)"/>
<path d="M0 0 C1.32256051 3.96768152 0.29090379 5.47352418 -1.25 9.3125 C-1.68828125 10.42238281 -2.1265625 11.53226563 -2.578125 12.67578125 C-3.93719402 15.85316513 -5.41963344 18.92758148 -7 22 C-8 20 -8 20 -7.6171875 18.22265625 C-5.46563827 11.96051559 -2.82981803 5.98400255 0 0 Z " fill="#282828" transform="translate(233,64)"/>
<path d="M0 0 C0.33 0 0.66 0 1 0 C1.34615998 5.65394631 0.43425238 9.03006806 -2 14 C-2.99 14 -3.98 14 -5 14 C-3.70022952 9.1008651 -2.07626313 4.62440425 0 0 Z " fill="#3D3D3D" transform="translate(237,125)"/>
<path d="M0 0 C0.66 0 1.32 0 2 0 C1.37183502 3.94949704 0.1354471 7.19892028 -1.5625 10.8125 C-2.01753906 11.78832031 -2.47257813 12.76414063 -2.94140625 13.76953125 C-3.29074219 14.50558594 -3.64007813 15.24164063 -4 16 C-4.33 16 -4.66 16 -5 16 C-5.3118744 11.73511753 -4.34425989 9.01433927 -2.5 5.1875 C-2.0359375 4.21167969 -1.571875 3.23585937 -1.09375 2.23046875 C-0.7328125 1.49441406 -0.371875 0.75835937 0 0 Z " fill="#141515" transform="translate(232,139)"/>
<path d="M0 0 C0.66 0 1.32 0 2 0 C1.52269162 1.4589426 1.04308958 2.91713496 0.5625 4.375 C0.29566406 5.18710938 0.02882812 5.99921875 -0.24609375 6.8359375 C-1 9 -1 9 -2 11 C-3.32 10.34 -4.64 9.68 -6 9 C-5.67 8.34 -5.34 7.68 -5 7 C-4.01 7.33 -3.02 7.66 -2 8 C-1.855625 6.865625 -1.71125 5.73125 -1.5625 4.5625 C-1 1 -1 1 0 0 Z " fill="#444444" transform="translate(204,129)"/>
<path d="M0 0 C0.97919756 3.07550784 0.98561151 5.02444072 0.125 8.125 C-0.05804688 8.80820313 -0.24109375 9.49140625 -0.4296875 10.1953125 C-1 12 -1 12 -2 14 C-2.66 14 -3.32 14 -4 14 C-3.71715982 12.22773547 -3.42339502 10.457212 -3.125 8.6875 C-2.96257812 7.70136719 -2.80015625 6.71523437 -2.6328125 5.69921875 C-2 3 -2 3 0 0 Z " fill="#4E4F4F" transform="translate(219,167)"/>
<path d="M0 0 C3.87747431 1.93873716 4.83478703 8.51305651 6.1875 12.5 C6.455625 13.325 6.72375 14.15 7 15 C4.14710778 13.57355389 3.46966958 11.81686669 2 9 C0 2.78947368 0 2.78947368 0 0 Z " fill="#737373" transform="translate(171,148)"/>
<path d="M0 0 C1 2 1 2 0.1875 4.875 C-0.75524181 7.3558995 -1.7442206 9.66783825 -3 12 C-3.66 12 -4.32 12 -5 12 C-3.85814266 7.52040582 -2.56984833 3.85477249 0 0 Z " fill="#A8ABAB" transform="translate(221,95)"/>
<path d="M0 0 C2.56616632 3.84924948 2.55097676 6.4349304 3 11 C1 10 1 10 0.1484375 7.93359375 C-0.10679687 7.10988281 -0.36203125 6.28617187 -0.625 5.4375 C-0.88539063 4.61121094 -1.14578125 3.78492187 -1.4140625 2.93359375 C-1.60742188 2.29550781 -1.80078125 1.65742187 -2 1 C-1.34 0.67 -0.68 0.34 0 0 Z " fill="#575858" transform="translate(182,95)"/>
<path d="M0 0 C2.65197185 2.65197185 3.584501 5.55356766 5 9 C5.33 9.66 5.66 10.32 6 11 C4.68 10.67 3.36 10.34 2 10 C1.34 6.7 0.68 3.4 0 0 Z " fill="#0E0E0E" transform="translate(196,126)"/>
</svg>
